HIERARCHY
ROOT Hips
{
	OFFSET 0.000000 0.000000 0.000000
	CHANNELS 6 Xposition Yposition Zposition Zrotation Yrotation Xrotation 
	JOINT LHipJoint
	{
		OFFSET 0.000000 0.000000 0.000000
		CHANNELS 3 Zrotation Yrotation Xrotation
		JOINT LeftUpLeg
		{
			OFFSET 1.363060 -1.794630 0.839290
			CHANNELS 3 Zrotation Yrotation Xrotation
			JOINT LeftLeg
			{
				OFFSET 2.448110 -6.726130 0.000000
				CHANNELS 3 Zrotation Yrotation Xrotation
				JOINT LeftFoot
				{
					OFFSET 2.562200 -7.039590 0.000000
					CHANNELS 3 Zrotation Yrotation Xrotation
					JOINT LeftToeBase
					{
						OFFSET 0.157640 -0.433110 2.322550
						CHANNELS 3 Zrotation Yrotation Xrotation
						End Site
						{
							OFFSET 0.000000 0.000000 0.000000
						}
					}
				}
			}
		}
	}
	JOINT RHipJoint
	{
		OFFSET 0.000000 0.000000 0.000000
		CHANNELS 3 Zrotation Yrotation Xrotation
		JOINT RightUpLeg
		{
			OFFSET -1.305520 -1.794630 0.839290
			CHANNELS 3 Zrotation Yrotation Xrotation
			JOINT RightLeg
			{
				OFFSET -2.542530 -6.985550 0.000000
				CHANNELS 3 Zrotation Yrotation Xrotation
				JOINT RightFoot
				{
					OFFSET -2.568260 -7.056230 0.000000
					CHANNELS 3 Zrotation Yrotation Xrotation
					JOINT RightToeBase
					{
						OFFSET -0.164730 -0.452590 2.363150
						CHANNELS 3 Zrotation Yrotation Xrotation
						End Site
						{
							OFFSET 0.000000 0.000000 0.000000
						}
					}
				}
			}
		}
	}
	JOINT LowerBack
	{
		OFFSET 0.000000 0.000000 0.000000
		CHANNELS 3 Zrotation Yrotation Xrotation
		JOINT Spine
		{
			OFFSET 0.028270 2.035590 -0.193380
			CHANNELS 3 Zrotation Yrotation Xrotation
			JOINT Spine1
			{
				OFFSET 0.056720 2.048850 -0.042750
				CHANNELS 3 Zrotation Yrotation Xrotation
				JOINT Neck
				{
					OFFSET 0.000000 0.000000 0.000000
					CHANNELS 3 Zrotation Yrotation Xrotation
					JOINT Neck1
					{
						OFFSET -0.054170 1.746240 0.172020
						CHANNELS 3 Zrotation Yrotation Xrotation
						JOINT Head
						{
							OFFSET 0.104070 1.761360 -0.123970
							CHANNELS 3 Zrotation Yrotation Xrotation
							End Site
							{
								OFFSET 0.000000 0.000000 0.000000
							}
						}
					}
				}
				JOINT LeftShoulder
				{
					OFFSET 0.000000 0.000000 0.000000
					CHANNELS 3 Zrotation Yrotation Xrotation
					JOINT LeftArm
					{
						OFFSET 3.362410 1.200890 -0.311210
						CHANNELS 3 Zrotation Yrotation Xrotation
						JOINT LeftForeArm
						{
							OFFSET 4.983000 -0.000000 -0.000000
							CHANNELS 3 Zrotation Yrotation Xrotation
							JOINT LeftHand
							{
								OFFSET 3.483560 -0.000000 -0.000000
								CHANNELS 3 Zrotation Yrotation Xrotation
								JOINT LeftFingerBase
								{
									OFFSET 0.000000 0.000000 0.000000
									CHANNELS 3 Zrotation Yrotation Xrotation
									JOINT LeftHandIndex1
									{
										OFFSET 0.715260 -0.000000 -0.000000
										CHANNELS 3 Zrotation Yrotation Xrotation
										End Site
										{
											OFFSET 0.000000 0.000000 0.000000
										}
									}
								}
								JOINT LThumb
								{
									OFFSET 0.000000 0.000000 0.000000
									CHANNELS 3 Zrotation Yrotation Xrotation
									End Site
									{
										OFFSET 0.000000 0.000000 0.000000
									}
								}
							}
						}
					}
				}
				JOINT RightShoulder
				{
					OFFSET 0.000000 0.000000 0.000000
					CHANNELS 3 Zrotation Yrotation Xrotation
					JOINT RightArm
					{
						OFFSET -3.136600 1.374050 -0.404650
						CHANNELS 3 Zrotation Yrotation Xrotation
						JOINT RightForeArm
						{
							OFFSET -5.241900 -0.000000 -0.000000
							CHANNELS 3 Zrotation Yrotation Xrotation
							JOINT RightHand
							{
								OFFSET -3.444170 -0.000000 -0.000000
								CHANNELS 3 Zrotation Yrotation Xrotation
								JOINT RightFingerBase
								{
									OFFSET 0.000000 0.000000 0.000000
									CHANNELS 3 Zrotation Yrotation Xrotation
									JOINT RightHandIndex1
									{
										OFFSET -0.622530 -0.000000 -0.000000
										CHANNELS 3 Zrotation Yrotation Xrotation
										End Site
										{
											OFFSET 0.000000 0.000000 0.000000
										}
									}
								}
								JOINT RThumb
								{
									OFFSET 0.000000 0.000000 0.000000
									CHANNELS 3 Zrotation Yrotation Xrotation
									End Site
									{
										OFFSET 0.000000 0.000000 0.000000
									}
								}
							}
						}
					}
				}
			}
		}
	}
}
MOTION
Frames: 12
Frame Time: 0.008333
6.247849 16.939392 -5.669795 4.547821 -59.790562 -7.512021 -4.848704 -2.099255 -0.397685 2.947115 -9.469423 -18.656416 1.507791 10.981291 30.644886 1.643938 -1.184551 12.731202 1.302200 -7.229400 -20.396800 1.239550 1.349421 -1.182504 3.005316 -3.892129 -24.735235 -7.786216 -16.464806 52.211400 3.100210 -13.930170 -9.186931 -0.375800 -3.937100 10.899700 -1.040176 4.425300 17.683831 0.346188 5.553049 -1.577019 1.458214 2.738666 0.733445 -1.790960 10.899129 -10.012465 -1.278712 15.172924 13.127267 0.641900 6.501000 8.384500 -4.702711 1.726358 -0.913326 -76.652348 -20.321513 72.127925 86.596942 -61.976216 -59.822417 0.732697 -1.038278 13.623803 25.485239 26.553479 11.988600 -7.125000 0.000000 0.000000 -6.788900 59.853800 -2.468100 2.007500 -1.783177 -0.510177 77.162745 8.203743 20.657326 -126.028877 53.170470 -91.857860 0.576213 -0.425439 -10.785275 -49.845373 28.988662 -30.689000 7.125000 0.000000 0.000000 -10.718000 10.914600 -12.756500 
6.083264 16.989518 -5.712819 3.573878 -59.511087 -6.392720 -4.825362 -2.010687 -0.320188 3.660404 -9.808510 -17.977509 1.348936 10.685053 29.698276 1.530457 -0.577988 12.943814 1.130400 -6.752800 -18.985000 1.316205 1.272773 -1.128594 2.508350 -2.750566 -23.383240 -6.695049 -15.678912 48.359571 3.511380 -15.116177 -8.233169 -0.538900 -4.703600 13.065000 -0.334771 4.469173 17.440161 0.365126 5.721028 -1.600451 1.208560 2.842144 0.665435 -1.726549 10.725786 -9.666972 -1.228808 14.906179 13.009026 0.623800 6.410100 8.214200 -4.725746 1.748043 -0.960127 -76.263895 -19.396030 71.452935 84.039802 -61.772961 -57.805145 0.720250 -1.095969 13.215716 25.167162 26.453071 11.807600 -7.125000 0.000000 0.000000 -7.123200 59.741700 -2.571300 2.001260 -1.787744 -0.490097 76.926882 7.716839 19.703085 -126.274165 53.093107 -92.085003 0.572064 -0.430824 -10.237620 -50.024395 29.036779 -30.886900 7.125000 0.000000 0.000000 -10.798100 11.066500 -12.877500 
5.923723 17.035631 -5.752653 4.114992 -59.280097 -6.646057 -4.930854 -1.906930 -0.202556 3.682798 -10.204525 -17.249199 1.158416 10.420795 28.797802 1.375390 0.059802 12.978185 1.323700 -7.286400 -20.566700 1.357853 1.193189 -1.077367 1.114274 -1.615030 -21.844547 -5.678630 -14.793975 44.530743 3.616168 -15.231015 -7.000186 -0.962900 -6.247800 17.505200 -0.565361 4.569961 17.315352 0.361531 5.821429 -1.620456 1.365375 2.889064 0.544400 -1.871100 10.646833 -9.498083 -1.133431 14.811502 12.978106 0.677900 6.371700 8.140400 -4.753280 1.754646 -1.011561 -75.961117 -18.435729 70.524130 81.751823 -61.533192 -55.971111 0.702575 -1.143456 12.739165 24.514839 26.520682 11.511500 -7.125000 0.000000 0.000000 -7.898600 59.709700 -2.847200 2.004141 -1.779977 -0.486087 76.459249 7.248139 19.106873 -126.766242 52.929086 -92.502805 0.566297 -0.422513 -9.939123 -49.613212 28.567056 -30.142900 7.125000 0.000000 0.000000 -10.725500 10.278300 -12.670700 
5.744419 17.063319 -5.812559 4.392888 -59.138763 -6.587891 -4.967478 -1.813547 -0.110604 3.896589 -10.283636 -16.684570 0.986534 10.156812 27.916490 1.305793 0.441994 13.086029 1.511600 -7.764500 -22.001200 1.409186 1.118924 -1.043938 0.061631 -0.197588 -20.322857 -4.765589 -13.888199 40.815898 4.009039 -16.361729 -5.443203 -0.894000 -6.026400 16.861000 -1.126023 4.661239 16.936937 0.418612 5.880056 -1.610642 1.998947 2.872238 0.694823 -2.098834 10.668209 -9.849186 -0.950590 14.890610 13.221889 0.800600 6.376800 8.336700 -4.729533 1.761034 -1.065357 -75.783898 -17.558207 69.126334 79.585109 -61.275113 -54.198801 0.677391 -1.176613 12.332959 23.818268 26.588602 11.190300 -7.125000 0.000000 0.000000 -8.701700 59.650700 -3.127000 2.075302 -1.824297 -0.513652 75.823389 7.411733 19.135729 -126.721020 52.972679 -92.451328 0.561619 -0.407652 -10.256870 -50.001042 28.802850 -30.653700 7.125000 0.000000 0.000000 -10.863000 10.738200 -12.908300 
5.556160 17.089772 -5.883786 2.547571 -58.761212 -4.592639 -4.783855 -1.745107 -0.111896 5.108672 -10.369821 -16.301034 0.881733 9.863852 27.027533 1.364945 0.536731 13.510822 1.441400 -7.590100 -21.475800 1.519328 1.033405 -0.977567 0.216394 1.354935 -18.796531 -3.901333 -12.996526 37.267178 4.479080 -17.833445 -4.256565 -0.647400 -5.147000 14.328200 -0.593036 4.509964 16.354504 0.568503 5.791354 -1.594539 2.448758 2.785893 1.002934 -2.117788 10.755006 -10.161247 -0.922804 15.042923 13.418824 0.816800 6.426000 8.508500 -4.667988 1.783695 -1.109327 -75.538484 -16.801696 67.582322 77.132397 -60.950540 -52.195949 0.653164 -1.215411 12.085978 23.101392 26.531199 10.813800 -7.125000 0.000000 0.000000 -9.462900 59.461700 -3.360600 2.176659 -1.899852 -0.538908 75.219827 7.823784 19.333449 -126.320913 53.163267 -92.114338 0.553067 -0.393468 -10.597997 -49.068932 28.360888 -29.470200 7.125000 0.000000 0.000000 -10.498400 9.709800 -12.309400 
5.381076 17.112314 -5.946779 0.361295 -58.154682 -2.409738 -4.552807 -1.667243 -0.140806 6.442547 -10.768509 -15.891774 0.825493 9.617793 26.286029 1.382146 0.741412 13.849142 1.446000 -7.601700 -21.510600 1.650633 0.920994 -0.872096 0.566646 2.646333 -17.214404 -3.132208 -12.096371 33.862833 4.934750 -19.331799 -2.766644 -0.395800 -4.039300 11.187300 0.596871 4.325757 15.939269 0.668948 5.717273 -1.590142 2.268338 2.759992 1.172184 -1.851220 10.753852 -10.010434 -0.974804 14.993981 13.339899 0.726000 6.437300 8.427500 -4.645645 1.819009 -1.142426 -75.089835 -16.158853 66.502438 74.424491 -60.531994 -49.991473 0.634645 -1.265904 11.685298 22.371068 26.688601 10.509100 -7.125000 0.000000 0.000000 -10.365700 59.503100 -3.695500 2.221578 -1.940726 -0.523766 74.840535 7.937836 19.118601 -126.131654 53.258378 -91.975487 0.546594 -0.389774 -10.601149 -48.145752 27.772511 -28.218900 7.125000 0.000000 0.000000 -10.171700 8.544700 -11.743300 
5.210212 17.125798 -6.005758 -0.604544 -57.546479 -1.498511 -4.446540 -1.562612 -0.114337 7.175745 -11.357004 -15.323378 0.765839 9.449130 25.726518 1.309474 1.072286 13.699283 1.630900 -8.050800 -22.868400 1.738378 0.781961 -0.748358 0.327867 3.403314 -15.640656 -2.514061 -11.214245 30.718610 5.180909 -20.294668 -0.418487 -0.158700 -2.567000 7.075300 1.306197 4.264622 15.823702 0.680967 5.722840 -1.603311 1.935352 2.792645 1.129361 -1.719122 10.662633 -9.779722 -0.631362 14.789861 13.355623 0.845000 6.394200 8.328000 -4.684756 1.843108 -1.191040 -74.613712 -15.423718 65.601976 71.900513 -60.083010 -47.936448 0.621798 -1.319126 11.084146 21.392262 27.093123 10.151100 -7.125000 0.000000 0.000000 -11.690400 59.733900 -4.240000 2.209036 -1.937596 -0.499387 74.577267 7.790476 18.769189 -126.336689 53.165405 -92.158224 0.550176 -0.395818 -10.803196 -49.756279 28.745571 -30.374200 7.125000 0.000000 0.000000 -10.744800 10.527000 -12.731600 
5.040172 17.129812 -6.056811 -0.814913 -57.071162 -1.358370 -4.447049 -1.440759 -0.057282 7.532550 -12.204361 -14.578711 0.706509 9.337322 25.277744 1.065037 1.845030 13.336884 1.990400 -8.846000 -25.314700 1.769301 0.637375 -0.624210 -0.266824 3.937652 -14.151228 -2.012782 -10.405127 27.998774 5.138372 -20.378815 1.626112 -0.016600 -0.833100 2.289700 1.520079 4.188443 15.841750 0.693039 5.647834 -1.609707 1.823696 2.767008 1.057109 -1.505049 10.638023 -9.751224 -0.553208 14.709919 13.487420 0.834800 6.369000 8.410000 -4.703097 1.847177 -1.237772 -74.182714 -14.461240 64.097102 69.913755 -59.703579 -46.342787 0.613581 -1.364580 10.686179 20.260033 27.377221 9.657800 -7.125000 0.000000 0.000000 -13.117500 59.788000 -4.784800 2.230672 -1.945553 -0.489419 74.213147 7.720908 18.717667 -126.824382 52.963834 -92.559641 0.552831 -0.394602 -11.252826 -51.260076 29.710771 -32.494500 7.125000 0.000000 0.000000 -11.238800 12.478100 -13.635300 
4.875896 17.125695 -6.119702 -1.065743 -56.567031 -0.919728 -4.394158 -1.371559 -0.062948 8.015074 -12.895060 -14.184773 0.662404 9.218535 24.846232 0.891079 2.454186 13.345842 2.067400 -9.005100 -25.811300 1.796174 0.526058 -0.524949 -0.697909 4.587926 -13.050873 -1.630427 -9.742280 25.840746 5.101823 -20.453248 2.981174 -0.058400 1.559800 -4.290600 1.698747 4.073343 15.540070 0.707638 5.501082 -1.606986 1.706294 2.707331 1.191431 -1.010984 10.584860 -9.879950 -0.938201 14.589504 13.438462 0.543200 6.313600 8.514000 -4.687449 1.861755 -1.265258 -73.528440 -13.621948 62.355980 68.398090 -59.407545 -45.150594 0.605729 -1.400080 10.310185 19.518474 27.509559 9.320500 -7.125000 0.000000 0.000000 -14.017900 59.776700 -5.117100 2.283418 -1.989786 -0.479757 73.868156 7.804927 18.731807 -127.301726 52.787176 -92.954300 0.552531 -0.388000 -11.439886 -51.301088 29.402052 -32.287900 7.125000 0.000000 0.000000 -11.358400 12.133800 -13.733700 
4.709767 17.119313 -6.185268 -1.672375 -55.950702 -0.120792 -4.278217 -1.323962 -0.098680 8.673723 -13.522512 -13.918931 0.641186 9.095177 24.441341 0.761991 2.961463 13.557785 1.495300 -7.724400 -21.880200 1.816670 0.437320 -0.435615 -0.823019 5.092174 -12.225039 -1.360015 -9.281920 24.382111 4.967665 -20.133883 3.715304 -0.290600 3.466800 -9.581200 2.228562 3.959308 15.063751 0.689176 5.377856 -1.588448 1.238606 2.682089 1.518128 -0.400265 10.506588 -10.101961 -1.166318 14.378926 13.342673 0.310800 6.243900 8.575700 -4.691172 1.900520 -1.286864 -72.632158 -13.036702 60.908591 66.846950 -59.090333 -43.940054 0.605740 -1.444679 9.751472 18.562268 27.789429 8.909500 -7.125000 0.000000 0.000000 -15.258300 59.866000 -5.615000 2.310300 -2.052505 -0.460915 73.730133 7.836621 18.560461 -127.745881 52.628310 -93.331412 0.550234 -0.390923 -11.222390 -50.727989 28.702595 -31.214000 7.125000 0.000000 0.000000 -11.270400 10.999600 -13.450300 
4.536433 17.105315 -6.260510 -2.241902 -55.418113 0.479388 -4.154971 -1.249953 -0.099647 9.273028 -13.971282 -13.558012 0.636080 8.993734 24.094635 0.588685 3.577708 13.700205 1.009200 -6.392100 -17.926300 1.800099 0.373469 -0.358880 -0.779306 5.601026 -11.400072 -1.180465 -9.041370 23.702796 4.635676 -18.926467 3.310103 -0.417500 4.147200 -11.491100 2.539798 3.923157 14.830027 0.692871 5.354126 -1.577669 1.058091 2.681625 1.678875 -0.173428 10.472935 -10.289001 -1.096713 14.271304 13.368600 0.302200 6.210400 8.639000 -4.703857 1.914616 -1.323375 -71.981384 -12.450897 59.575079 64.871498 -58.642143 -42.344822 0.603360 -1.490593 9.277945 17.338298 28.165079 8.375200 -7.125000 0.000000 0.000000 -16.853800 59.977900 -6.266700 2.329917 -2.087960 -0.457990 73.501090 7.807215 18.366275 -128.379192 52.391867 -93.854914 0.544014 -0.391062 -11.122583 -49.524981 28.122585 -29.679700 7.125000 0.000000 0.000000 -10.802300 9.670500 -12.671500 
4.361452 17.087714 -6.351397 -2.665137 -55.113865 0.928422 -4.010410 -1.177954 -0.088770 9.769409 -13.933871 -13.343279 0.655308 8.931031 23.875457 0.440384 4.055032 13.597804 1.064800 -6.560400 -18.419400 1.768511 0.343356 -0.310442 -0.617678 6.238727 -10.683521 -1.078946 -8.978193 23.619156 4.054105 -16.886411 2.821210 -0.495400 4.512800 -12.524100 2.537111 4.013137 14.772570 0.716302 5.482808 -1.580683 1.221001 2.729999 1.664194 -0.329808 10.417209 -10.376735 -0.844341 14.187680 13.396439 0.448300 6.177000 8.641500 -4.719715 1.907897 -1.369791 -71.638247 -11.870588 58.227422 62.709637 -58.105829 -40.563418 0.592251 -1.527816 9.049532 16.406925 28.369821 7.945900 -7.125000 0.000000 0.000000 -18.006200 59.984200 -6.714300 2.346768 -2.093759 -0.466252 73.099877 7.865964 18.119514 -129.158830 52.082279 -94.494895 0.541961 -0.378453 -11.410057 -48.653664 27.517918 -28.442200 7.125000 0.000000 0.000000 -10.513900 8.490600 -12.142600 
